HIERARCHY
ROOT Hips
{
	OFFSET -0.001795 -0.223333 0.028219
	CHANNELS 6 Xposition Yposition Zposition Zrotation Yrotation Xrotation 
	JOINT LeftUpLeg
	{
		OFFSET 0.069520 -0.091406 -0.006815
		CHANNELS 3 Zrotation Yrotation Xrotation
		JOINT LeftLeg
		{
			OFFSET 0.034277 -0.375199 -0.004496
			CHANNELS 3 Zrotation Yrotation Xrotation
			JOINT LeftFoot
			{
				OFFSET -0.013596 -0.397961 -0.043693
				CHANNELS 3 Zrotation Yrotation Xrotation
				JOINT LeftToe
				{
					OFFSET 0.026358 -0.055791 0.119288
					CHANNELS 3 Zrotation Yrotation Xrotation
					End Site
					{
						OFFSET 0.000000 0.000000 0.000000
					}
				}
			}
		}
	}
	JOINT RightUpLeg
	{
		OFFSET -0.067670 -0.090522 -0.004320
		CHANNELS 3 Zrotation Yrotation Xrotation
		JOINT RightLeg
		{
			OFFSET -0.038290 -0.382569 -0.008850
			CHANNELS 3 Zrotation Yrotation Xrotation
			JOINT RightFoot
			{
				OFFSET 0.015774 -0.398415 -0.042312
				CHANNELS 3 Zrotation Yrotation Xrotation
				JOINT RightToe
				{
					OFFSET -0.025372 -0.048144 0.123348
					CHANNELS 3 Zrotation Yrotation Xrotation
					End Site
					{
						OFFSET 0.000000 0.000000 0.000000
					}
				}
			}
		}
	}
	JOINT Spine
	{
		OFFSET -0.002533 0.108963 -0.026696
		CHANNELS 3 Zrotation Yrotation Xrotation
		JOINT Spine1
		{
			OFFSET 0.005487 0.135180 0.001092
			CHANNELS 3 Zrotation Yrotation Xrotation
			JOINT Spine2
			{
				OFFSET 0.001457 0.052922 0.025425
				CHANNELS 3 Zrotation Yrotation Xrotation
				JOINT Neck
				{
					OFFSET -0.002778 0.213870 -0.042857
					CHANNELS 3 Zrotation Yrotation Xrotation
					JOINT Head
					{
						OFFSET 0.005152 0.064970 0.051349
						CHANNELS 3 Zrotation Yrotation Xrotation
						End Site
						{
							OFFSET 0.000000 0.000000 0.000000
						}
					}
				}
				JOINT LeftShoulder
				{
					OFFSET 0.078845 0.121749 -0.034090
					CHANNELS 3 Zrotation Yrotation Xrotation
					JOINT LeftArm
					{
						OFFSET 0.090977 0.030469 -0.008868
						CHANNELS 3 Zrotation Yrotation Xrotation
						JOINT LeftForeArm
						{
							OFFSET 0.259612 -0.012772 -0.027456
							CHANNELS 3 Zrotation Yrotation Xrotation
							JOINT LeftHand
							{
								OFFSET 0.249234 0.008986 -0.001171
								CHANNELS 3 Zrotation Yrotation Xrotation
								End Site
								{
									OFFSET 0.000000 0.000000 0.000000
								}
							}
						}
					}
				}
				JOINT RightShoulder
				{
					OFFSET -0.081759 0.118833 -0.038615
					CHANNELS 3 Zrotation Yrotation Xrotation
					JOINT RightArm
					{
						OFFSET -0.096012 0.032551 -0.009143
						CHANNELS 3 Zrotation Yrotation Xrotation
						JOINT RightForeArm
						{
							OFFSET -0.253742 -0.013329 -0.021401
							CHANNELS 3 Zrotation Yrotation Xrotation
							JOINT RightHand
							{
								OFFSET -0.255298 0.007772 -0.005559
								CHANNELS 3 Zrotation Yrotation Xrotation
								End Site
								{
									OFFSET 0.000000 0.000000 0.000000
								}
							}
						}
					}
				}
			}
		}
	}
}
MOTION
Frames: 9
Frame Time: 0.050000
-0.057969 0.949171 1.234765 3.424428 14.030032 17.880939 1.143955 -0.598704 -6.739287 -0.646826 -0.139786 4.695819 5.867031 13.876358 7.079023 0.000000 0.000000 0.000000 2.216280 2.193039 -25.796432 -0.511056 0.296057 10.765584 0.187706 -0.193628 2.700197 0.000000 0.000000 0.000000 9.684690 -2.637067 12.609739 7.779128 -4.741708 6.347520 -9.797269 2.035130 6.879728 15.180697 -7.113186 -15.989562 0.000000 0.000000 0.000000 -5.830391 -41.291936 15.787416 -20.043314 -46.560653 3.208363 43.194395 -40.628852 -15.420643 0.000000 0.000000 0.000000 5.639138 21.955226 10.423085 29.426649 19.752155 0.921956 -31.062149 45.099838 -9.180536 0.000000 0.000000 0.000000 
-0.057509 0.948771 1.234615 3.500717 13.801880 17.665371 1.283490 -0.589744 -6.596358 -0.755772 -0.152742 5.290052 5.910226 13.767456 6.453058 0.000000 0.000000 0.000000 2.226219 2.213003 -25.898151 -0.522966 0.307939 11.519736 0.106737 -0.228964 2.106043 0.000000 0.000000 0.000000 9.190058 -2.538582 12.732664 7.713270 -4.695878 6.315823 -9.807431 1.948468 6.700492 15.133904 -7.261213 -15.397951 0.000000 0.000000 0.000000 -6.002739 -41.047613 15.728397 -19.029590 -45.237286 2.747943 41.388399 -39.987509 -14.427334 0.000000 0.000000 0.000000 6.407229 21.578557 10.416695 30.131551 19.253906 0.857614 -28.899602 48.610870 -9.130964 0.000000 0.000000 0.000000 
-0.056938 0.948231 1.234270 3.460842 14.214010 17.444669 1.535786 -0.585456 -6.477148 -0.676233 -0.196334 5.960157 5.779271 13.279229 5.491342 0.000000 0.000000 0.000000 2.233429 2.198508 -26.002122 -0.359215 0.264317 12.353986 0.102988 -0.128014 1.768217 0.000000 0.000000 0.000000 9.083118 -2.518261 12.745970 7.954738 -4.807877 6.099339 -9.747681 1.833054 6.747762 14.942336 -7.317106 -14.770675 0.000000 0.000000 0.000000 -6.238911 -40.527394 15.520632 -17.364040 -43.889737 2.086442 40.105275 -39.494588 -13.751263 0.000000 0.000000 0.000000 7.002929 21.291855 10.440884 31.280813 19.112461 0.902873 -27.307982 50.288331 -8.765733 0.000000 0.000000 0.000000 
-0.056310 0.947773 1.233801 3.392924 14.536403 17.062916 1.915242 -0.577927 -6.269575 -0.812466 -0.215264 6.654855 5.805588 13.074744 4.681473 0.000000 0.000000 0.000000 2.210480 2.183419 -26.110355 -0.349754 0.253945 12.970890 -0.048950 -0.449551 1.606264 0.000000 0.000000 0.000000 9.001567 -2.524373 12.932189 8.245961 -5.077706 6.587933 -9.406487 2.172094 6.305602 14.958615 -7.387168 -14.427172 0.000000 0.000000 0.000000 -6.035708 -39.988475 15.130730 -16.300634 -42.508193 1.648910 39.837164 -39.494749 -13.753690 0.000000 0.000000 0.000000 7.879648 21.543448 10.847377 31.755659 19.282185 0.969288 -25.221079 50.024765 -7.781018 0.000000 0.000000 0.000000 
-0.055602 0.947221 1.233203 3.431925 14.992621 16.805723 1.990773 -0.561853 -6.051575 -0.557726 -0.266994 6.944274 5.494134 12.343408 4.080211 0.000000 0.000000 0.000000 2.077827 2.130968 -26.015668 -0.067723 0.171206 13.362908 -0.185929 -0.702704 1.331011 0.000000 0.000000 0.000000 8.953782 -2.554034 13.170824 8.575379 -5.335407 6.854906 -8.942913 2.859753 5.838463 15.043665 -7.495655 -14.003513 0.000000 0.000000 0.000000 -5.294402 -39.372999 14.539919 -16.027690 -41.528425 1.464630 39.957168 -39.691153 -14.055799 0.000000 0.000000 0.000000 8.612391 21.539145 11.179486 32.579832 19.822944 1.164230 -23.672369 48.038672 -6.712624 0.000000 0.000000 0.000000 
-0.054865 0.946659 1.232523 3.309121 15.493734 16.475255 2.091772 -0.557268 -5.968240 -0.510286 -0.288605 7.157354 5.481439 12.096813 3.438046 0.000000 0.000000 0.000000 2.332130 2.132038 -25.549818 -0.112891 0.169343 13.223949 -0.358362 -1.134721 1.388559 0.000000 0.000000 0.000000 9.010815 -2.594528 13.339904 8.690935 -5.545245 7.438078 -8.160795 3.521148 5.266015 14.815863 -7.390070 -13.637220 0.000000 0.000000 0.000000 -5.596112 -38.625102 14.135531 -15.667641 -40.729825 1.324941 40.391645 -40.273027 -14.600814 0.000000 0.000000 0.000000 9.418343 21.952109 11.718680 33.422512 20.350918 1.386082 -22.333558 45.401202 -5.778333 0.000000 0.000000 0.000000 
-0.054049 0.946341 1.231775 3.390828 15.938469 16.185732 1.985270 -0.531653 -5.704971 -0.368127 -0.310595 7.152042 5.345843 11.876491 3.531901 0.000000 0.000000 0.000000 2.353886 2.101671 -25.264180 -0.090645 0.150456 13.301400 -0.509133 -1.482054 1.317913 0.000000 0.000000 0.000000 9.211910 -2.688701 13.638175 8.828735 -5.659850 7.509356 -7.542735 3.986217 4.980292 14.641630 -7.161490 -13.863123 0.000000 0.000000 0.000000 -5.635551 -37.881883 13.716533 -15.167268 -40.256436 1.152843 40.305793 -39.866818 -14.510670 0.000000 0.000000 0.000000 10.191776 22.153576 12.138961 34.333792 21.178559 1.687228 -21.791788 42.763437 -5.206885 0.000000 0.000000 0.000000 
-0.053314 0.945655 1.230988 3.240881 16.299392 15.720600 2.067233 -0.525571 -5.611359 -0.069383 -0.379452 7.586078 5.373388 11.763483 3.107976 0.000000 0.000000 0.000000 2.473562 2.095912 -24.945197 -0.052297 0.130412 13.377613 -0.568002 -1.633009 1.363100 0.000000 0.000000 0.000000 9.547625 -2.804262 13.909503 8.831313 -5.727613 7.747487 -6.655241 4.287298 4.853558 14.530604 -6.801013 -14.788956 0.000000 0.000000 0.000000 -5.846827 -37.377952 13.489045 -14.680291 -39.892692 1.000457 40.703457 -38.922040 -14.350065 0.000000 0.000000 0.000000 10.665157 22.187697 12.320830 35.121156 21.453784 1.837108 -21.824576 41.857273 -5.088091 0.000000 0.000000 0.000000 
-0.052761 0.945458 1.229972 3.090210 16.582924 15.276434 2.165500 -0.519823 -5.511740 -0.009906 -0.395731 7.683816 5.652513 12.464994 3.759793 0.000000 0.000000 0.000000 2.650523 2.092944 -24.412857 -0.094560 0.134631 13.213395 -0.662857 -1.874725 1.406396 0.000000 0.000000 0.000000 9.864847 -2.908091 14.145143 8.782527 -5.760259 7.967464 -6.089737 4.546510 4.703689 14.582076 -6.684688 -15.255269 0.000000 0.000000 0.000000 -5.648147 -36.781953 13.147069 -14.573510 -39.759545 0.953934 39.917336 -37.948133 -13.716178 0.000000 0.000000 0.000000 10.894353 21.793048 12.207119 35.967687 21.587731 1.971044 -21.886978 41.959330 -5.085481 0.000000 0.000000 0.000000 
